HIERARCHY
ROOT Hips
{
  OFFSET 2.264 26.434 -241.293
  CHANNELS 6 Xposition Yposition Zposition Zrotation Xrotation Yrotation
  JOINT LeftUpLeg
  {
    OFFSET 6.989 -5.935 2.950
    CHANNELS 6 Xposition Yposition Zposition Zrotation Xrotation Yrotation
    JOINT LeftLeg
    {
      OFFSET -0.000 -48.134 0.000
      CHANNELS 6 Xposition Yposition Zposition Zrotation Xrotation Yrotation
      JOINT LeftFoot
      {
        OFFSET -0.000 -41.552 -0.000
        CHANNELS 6 Xposition Yposition Zposition Zrotation Xrotation Yrotation
        End Site
        {
          OFFSET 0.000 -7.235 4.177
        }
      }
    }
  }
  JOINT RightUpLeg
  {
    OFFSET -6.898 -6.046 3.886
    CHANNELS 6 Xposition Yposition Zposition Zrotation Xrotation Yrotation
    JOINT RightLeg
    {
      OFFSET 0.000 -47.641 0.000
      CHANNELS 6 Xposition Yposition Zposition Zrotation Xrotation Yrotation
      JOINT RightFoot
      {
        OFFSET 0.000 -43.118 -0.000
        CHANNELS 6 Xposition Yposition Zposition Zrotation Xrotation Yrotation
        End Site
        {
          OFFSET 0.000 -7.369 4.255
        }
      }
    }
  }
  JOINT Spine
  {
    OFFSET 0.000 5.045 -5.045
    CHANNELS 6 Xposition Yposition Zposition Zrotation Xrotation Yrotation
    JOINT LeftShoulder
    {
      OFFSET -0.000 36.291 0.000
      CHANNELS 6 Xposition Yposition Zposition Zrotation Xrotation Yrotation
      JOINT LeftArm
      {
        OFFSET 17.457 0.000 -0.000
        CHANNELS 6 Xposition Yposition Zposition Zrotation Xrotation Yrotation
        JOINT LeftForeArm
        {
          OFFSET 20.891 0.000 0.000
          CHANNELS 6 Xposition Yposition Zposition Zrotation Xrotation Yrotation
          JOINT LeftHand
          {
            OFFSET 23.721 -0.000 -0.000
            CHANNELS 6 Xposition Yposition Zposition Zrotation Xrotation Yrotation
            JOINT LeftHandThumb1
            {
            OFFSET 4.970 -0.620 3.390
            CHANNELS 6 Xposition Yposition Zposition Zrotation Xrotation Yrotation
              JOINT LeftHandThumb2
              {
              OFFSET 2.150 -0.000 0.000
              CHANNELS 6 Xposition Yposition Zposition Zrotation Xrotation Yrotation
                JOINT LeftHandThumb3
                {
                OFFSET 2.200 -0.000 0.000
                CHANNELS 6 Xposition Yposition Zposition Zrotation Xrotation Yrotation
                  JOINT LeftHandThumb4
                  {
                  OFFSET 1.700 -0.000 0.000
                  CHANNELS 6 Xposition Yposition Zposition Zrotation Xrotation Yrotation
                  }
                }
              }
            }
            JOINT LeftHandIndex1
            {
            OFFSET 8.730 0.680 2.070
            CHANNELS 6 Xposition Yposition Zposition Zrotation Xrotation Yrotation
              JOINT LeftHandIndex2
              {
              OFFSET 2.670 -0.000 0.000
              CHANNELS 6 Xposition Yposition Zposition Zrotation Xrotation Yrotation
                JOINT LeftHandIndex3
                {
                OFFSET 2.130 -0.000 0.000
                CHANNELS 6 Xposition Yposition Zposition Zrotation Xrotation Yrotation
                  JOINT LeftHandIndex4
                  {
                  OFFSET 1.800 -0.000 0.000
                  CHANNELS 6 Xposition Yposition Zposition Zrotation Xrotation Yrotation
                  }
                }
              }
            }
            JOINT LeftHandMiddle1
            {
            OFFSET 9.220 0.670 0.550
            CHANNELS 6 Xposition Yposition Zposition Zrotation Xrotation Yrotation
              JOINT LeftHandMiddle2
              {
              OFFSET 2.660 -0.000 0.000
              CHANNELS 6 Xposition Yposition Zposition Zrotation Xrotation Yrotation
                JOINT LeftHandMiddle3
                {
                OFFSET 2.280 -0.000 0.000
                CHANNELS 6 Xposition Yposition Zposition Zrotation Xrotation Yrotation
                  JOINT LeftHandMiddle4
                  {
                  OFFSET 1.500 -0.000 0.000
                  CHANNELS 6 Xposition Yposition Zposition Zrotation Xrotation Yrotation
                  }
                }
              }
            }
            JOINT LeftHandRing1
            {
            OFFSET 9.250 0.670 -1.130
            CHANNELS 6 Xposition Yposition Zposition Zrotation Xrotation Yrotation
              JOINT LeftHandRing2
              {
              OFFSET 2.470 -0.000 0.000
              CHANNELS 6 Xposition Yposition Zposition Zrotation Xrotation Yrotation
                JOINT LeftHandRing3
                {
                OFFSET 2.210 -0.000 0.000
                CHANNELS 6 Xposition Yposition Zposition Zrotation Xrotation Yrotation
                  JOINT LeftHandRing4
                  {
                  OFFSET 1.800 -0.000 0.000
                  CHANNELS 6 Xposition Yposition Zposition Zrotation Xrotation Yrotation
                  }
                }
              }
            }
            JOINT LeftHandPinky1
            {
            OFFSET 9.350 0.660 -2.720
            CHANNELS 6 Xposition Yposition Zposition Zrotation Xrotation Yrotation
              JOINT LeftHandPinky2
              {
              OFFSET 1.630 -0.000 0.000
              CHANNELS 6 Xposition Yposition Zposition Zrotation Xrotation Yrotation
                JOINT LeftHandPinky3
                {
                OFFSET 1.710 -0.000 0.000
                CHANNELS 6 Xposition Yposition Zposition Zrotation Xrotation Yrotation
                  JOINT LeftHandPinky4
                  {
                  OFFSET 1.800 -0.000 0.000
                  CHANNELS 6 Xposition Yposition Zposition Zrotation Xrotation Yrotation
                  }
                }
              }
            }
          }
        }
      }
    }
    JOINT RightShoulder
    {
      OFFSET -0.000 36.291 0.000
      CHANNELS 6 Xposition Yposition Zposition Zrotation Xrotation Yrotation
      JOINT RightArm
      {
        OFFSET -20.290 0.000 -0.000
        CHANNELS 6 Xposition Yposition Zposition Zrotation Xrotation Yrotation
        JOINT RightForeArm
        {
          OFFSET -21.454 0.000 0.000
          CHANNELS 6 Xposition Yposition Zposition Zrotation Xrotation Yrotation
          JOINT RightHand
          {
            OFFSET -24.359 0.000 -0.000
            CHANNELS 6 Xposition Yposition Zposition Zrotation Xrotation Yrotation
            JOINT RightHandThumb1
            {
            OFFSET -4.970 -0.620 3.390
            CHANNELS 6 Xposition Yposition Zposition Zrotation Xrotation Yrotation
              JOINT RightHandThumb2
              {
              OFFSET -2.150 0.000 0.000
              CHANNELS 6 Xposition Yposition Zposition Zrotation Xrotation Yrotation
                JOINT RightHandThumb3
                {
                OFFSET -2.200 0.000 0.000
                CHANNELS 6 Xposition Yposition Zposition Zrotation Xrotation Yrotation
                  JOINT RightHandThumb4
                  {
                  OFFSET -1.700 0.000 0.000
                  CHANNELS 6 Xposition Yposition Zposition Zrotation Xrotation Yrotation
                  }
                }
              }
            }
            JOINT RightHandIndex1
            {
            OFFSET -8.730 0.680 2.070
            CHANNELS 6 Xposition Yposition Zposition Zrotation Xrotation Yrotation
              JOINT RightHandIndex2
              {
              OFFSET -2.670 0.000 0.000
              CHANNELS 6 Xposition Yposition Zposition Zrotation Xrotation Yrotation
                JOINT RightHandIndex3
                {
                OFFSET -2.130 0.000 0.000
                CHANNELS 6 Xposition Yposition Zposition Zrotation Xrotation Yrotation
                  JOINT RightHandIndex4
                  {
                  OFFSET -1.800 0.000 0.000
                  CHANNELS 6 Xposition Yposition Zposition Zrotation Xrotation Yrotation
                  }
                }
              }
            }
            JOINT RightHandMiddle1
            {
            OFFSET -9.220 0.670 0.550
            CHANNELS 6 Xposition Yposition Zposition Zrotation Xrotation Yrotation
              JOINT RightHandMiddle2
              {
              OFFSET -2.660 0.000 0.000
              CHANNELS 6 Xposition Yposition Zposition Zrotation Xrotation Yrotation
                JOINT RightHandMiddle3
                {
                OFFSET -2.280 0.000 0.000
                CHANNELS 6 Xposition Yposition Zposition Zrotation Xrotation Yrotation
                  JOINT RightHandMiddle4
                  {
                  OFFSET -1.500 0.000 0.000
                  CHANNELS 6 Xposition Yposition Zposition Zrotation Xrotation Yrotation
                  }
                }
              }
            }
            JOINT RightHandRing1
            {
            OFFSET -9.250 0.670 -1.130
            CHANNELS 6 Xposition Yposition Zposition Zrotation Xrotation Yrotation
              JOINT RightHandRing2
              {
              OFFSET -2.470 0.000 0.000
              CHANNELS 6 Xposition Yposition Zposition Zrotation Xrotation Yrotation
                JOINT RightHandRing3
                {
                OFFSET -2.210 0.000 0.000
                CHANNELS 6 Xposition Yposition Zposition Zrotation Xrotation Yrotation
                  JOINT RightHandRing4
                  {
                  OFFSET -1.800 0.000 0.000
                  CHANNELS 6 Xposition Yposition Zposition Zrotation Xrotation Yrotation
                  }
                }
              }
            }
            JOINT RightHandPinky1
            {
            OFFSET -9.350 0.660 -2.720
            CHANNELS 6 Xposition Yposition Zposition Zrotation Xrotation Yrotation
              JOINT RightHandPinky2
              {
              OFFSET -1.630 0.000 0.000
              CHANNELS 6 Xposition Yposition Zposition Zrotation Xrotation Yrotation
                JOINT RightHandPinky3
                {
                OFFSET -1.710 0.000 0.000
                CHANNELS 6 Xposition Yposition Zposition Zrotation Xrotation Yrotation
                  JOINT RightHandPinky4
                  {
                  OFFSET -1.800 0.000 0.000
                  CHANNELS 6 Xposition Yposition Zposition Zrotation Xrotation Yrotation
                  }
                }
              }
            }
          }
        }
      }
    }
    JOINT Neck
    {
      OFFSET -0.000 36.291 0.000
      CHANNELS 6 Xposition Yposition Zposition Zrotation Xrotation Yrotation
      JOINT Head
      {
        OFFSET -0.000 15.943 -0.000
        CHANNELS 6 Xposition Yposition Zposition Zrotation Xrotation Yrotation
        End Site
        {
          OFFSET -0.000 0.064 -0.000
        }
      }
    }
  }
}
MOTION
Frames:	6
Frame Time:	0.0333333
41.3256 29.7492 -240.908 -2.06299 4.58757 -13.2309 7.2126 -6.70395 1.2594 -0.947514 5.47563 1.83179 -3.53903e-06 -55.2232 0 5.14387 -10.9878 0.982966 -4.84288e-06 -36.4893 0 -6.14751 0.735254 -3.44069 -7.07747 -6.98332 1.66883 5.6559 4.60539 1.27613 7.45058e-06 -57.7533 2.38419e-05 -1.40819 -11.7459 -0.286718 -1.04308e-05 -36.2563 -9.53674e-05 20.1519 1.41626 11.5283 8.9407e-06 5.96356 -5.96354 0.249043 -2.5486 0.758663 -5.96046e-06 36.2903 4.76837e-05 -32.7991 1.19528e-05 1.47278 17.2326 5.96046e-06 0 -33.6115 25.2499 -0.542875 21.2538 -4.17233e-05 0 -6.89607e-05 -6.85318e-06 -100.983 24.7028 1.78814e-05 -1.19209e-05 34.9979 -0.774579 -14.6881 0.0062 0.0497 0.0339 0 0 0 0 0.0215 0 0 0 0 0 0.022 0 0 0 0 0 0.017 0 0 0 0 -0.0068 0.0873 0.0207 0 0 0 0 0.0267 0 0 0 0 0 0.0213 0 0 0 0 0 0.018 0 0 0 0 -0.0067 0.0922 0.0055 0 0 0 0 0.0266 0 0 0 0 0 0.0228 0 0 0 0 0 0.015 0 0 0 0 -0.0067 0.0925 -0.0113 0 0 0 0 0.0247 0 0 0 0 0 0.0221 0 0 0 0 0 0.018 0 0 0 0 -0.0066 0.0935 -0.0272 0 0 0 0 0.0163 0 0 0 0 0 0.0171 0 0 0 0 0 0.018 0 0 0 0 -5.96046e-06 36.2903 4.76837e-05 30.2565 -2.56132e-06 -1.32629 -19.1357 -5.96046e-06 -7.15256e-05 53.2601 19.4793 -9.02035 -24.0587 1.19209e-05 0 6.67226e-06 6.83019e-06 56.0686 -27.2344 -8.9407e-06 0 6.43776 -0.125797 -6.67576 -0.0062 0.0497 0.0339 45 0 0 0 0.0215 0 0 -45 0 0 0.022 0 0 -45 0 0 0.017 0 0 0 0 0.0068 0.0873 0.0207 45 0 0 0 0.0267 0 80 0 0 0 0.0213 0 90 0 0 0 0.018 0 0 0 0 0.0067 0.0922 0.0055 45 0 0 0 0.0266 0 80 0 0 0 0.0228 0 90 0 0 0 0.015 0 0 0 0 0.0067 0.0925 -0.0113 45 0 0 0 0.0247 0 80 0 0 0 0.0221 0 90 0 0 0 0.018 0 0 0 0 0.0066 0.0935 -0.0272 45 0 0 0 0.0163 0 80 0 0 0 0.0171 0 90 0 0 0 0.018 0 0 0 0 -5.96046e-06 36.2903 4.76837e-05 10.8929 2.98754 -0.574642 5.58794e-07 17.5001 -2.38419e-05 7.84404e-06 -1.02453e-05 -8.53773e-07 
41.2946 29.7425 -240.865 -2.09242 4.67511 -12.9652 7.21221 -6.67713 1.29929 -0.935009 5.43615 1.44659 5.7742e-06 -55.2279 4.76837e-05 5.11019 -11.0352 0.980657 -2.23517e-06 -36.8873 -4.76837e-05 -5.65662 -0.167991 -3.2757 -7.05157 -6.96053 1.61188 5.73089 4.52982 0.891771 1.63913e-05 -57.8655 4.76837e-05 -2.09005 -11.2156 -0.406693 4.47035e-06 -34.984 -2.38419e-05 20.5229 1.54227 11.7515 -1.49012e-05 5.96081 -5.96077 0.411009 -2.54855 0.53318 1.3411e-05 36.2903 -4.76837e-05 -33.1936 1.36604e-05 1.51908 17.361 -1.49012e-05 -2.38419e-05 -32.8238 25.4664 -0.764969 21.2282 2.38419e-05 2.38419e-05 1.66964e-07 1.69147e-06 -101.275 24.769 -5.96046e-06 1.19209e-05 34.4273 -0.613281 -15.2441 0.0062 0.0497 0.0339 0 0 0 0 0.0215 0 0 0 0 0 0.022 0 0 0 0 0 0.017 0 0 0 0 -0.0068 0.0873 0.0207 0 0 0 0 0.0267 0 0 0 0 0 0.0213 0 0 0 0 0 0.018 0 0 0 0 -0.0067 0.0922 0.0055 0 0 0 0 0.0266 0 0 0 0 0 0.0228 0 0 0 0 0 0.015 0 0 0 0 -0.0067 0.0925 -0.0113 0 0 0 0 0.0247 0 0 0 0 0 0.0221 0 0 0 0 0 0.018 0 0 0 0 -0.0066 0.0935 -0.0272 0 0 0 0 0.0163 0 0 0 0 0 0.0171 0 0 0 0 0 0.018 0 0 0 0 1.3411e-05 36.2903 -4.76837e-05 30.2848 -2.56132e-06 -1.38734 -19.0093 1.78814e-05 0 53.2277 20.1207 -9.20607 -23.8862 0 2.38419e-05 1.02034e-05 4.26887e-07 56.5775 -27.7909 -8.9407e-06 -1.19209e-05 5.34652 -0.139741 -8.9052 -0.0062 0.0497 0.0339 45 0 0 0 0.0215 0 0 -45 0 0 0.022 0 0 -45 0 0 0.017 0 0 0 0 0.0068 0.0873 0.0207 45 0 0 0 0.0267 0 80 0 0 0 0.0213 0 90 0 0 0 0.018 0 0 0 0 0.0067 0.0922 0.0055 45 0 0 0 0.0266 0 80 0 0 0 0.0228 0 90 0 0 0 0.015 0 0 0 0 0.0067 0.0925 -0.0113 45 0 0 0 0.0247 0 80 0 0 0 0.0221 0 90 0 0 0 0.018 0 0 0 0 0.0066 0.0935 -0.0272 45 0 0 0 0.0163 0 80 0 0 0 0.0171 0 90 0 0 0 0.018 0 0 0 0 1.3411e-05 36.2903 -4.76837e-05 10.3651 2.91302 -0.532562 -1.63913e-05 17.4789 7.15256e-05 1.00318e-05 -1.10991e-05 -2.56132e-06 
41.2667 29.7551 -240.835 -2.09665 4.7182 -12.8015 7.20698 -6.66604 1.32728 -0.942918 5.42634 1.13675 1.28523e-05 -55.2359 4.76837e-05 5.0785 -11.0765 0.978149 -8.56817e-06 -37.1971 -4.76837e-05 -5.07802 -1.11143 -3.04656 -7.03461 -6.93161 1.56353 5.75 4.46992 0.58488 2.08616e-05 -57.9461 -4.76837e-05 -2.09026 -11.1831 -0.405564 -1.04308e-05 -34.7732 4.76837e-05 20.7729 1.79268 11.8434 -1.3411e-05 5.95404 -5.95403 0.494122 -2.52564 0.429828 1.78814e-05 36.2903 -2.38419e-05 -33.2681 1.36604e-05 1.58919 17.4306 -3.57628e-05 9.53674e-05 -32.4022 25.7764 -1.01617 21.207 -1.19209e-05 -2.38419e-05 -8.14825e-07 -7.61302e-06 -102.218 24.823 1.19209e-05 0 33.8207 0.493144 -6.125 0.0062 0.0497 0.0339 0 0 0 0 0.0215 0 0 0 0 0 0.022 0 0 0 0 0 0.017 0 0 0 0 -0.0068 0.0873 0.0207 0 0 0 0 0.0267 0 0 0 0 0 0.0213 0 0 0 0 0 0.018 0 0 0 0 -0.0067 0.0922 0.0055 0 0 0 0 0.0266 0 0 0 0 0 0.0228 0 0 0 0 0 0.015 0 0 0 0 -0.0067 0.0925 -0.0113 0 0 0 0 0.0247 0 0 0 0 0 0.0221 0 0 0 0 0 0.018 0 0 0 0 -0.0066 0.0935 -0.0272 0 0 0 0 0.0163 0 0 0 0 0 0.0171 0 0 0 0 0 0.018 0 0 0 0 1.78814e-05 36.2903 -2.38419e-05 30.3079 -2.13443e-06 -1.46601 -18.895 5.96046e-06 0 53.2148 20.5414 -9.30566 -23.8039 5.96046e-06 4.76837e-05 7.15143e-06 5.54953e-06 57.219 -28.2129 -1.19209e-05 1.19209e-05 4.54863 -0.136129 -11.1843 -0.0062 0.0497 0.0339 45 0 0 0 0.0215 0 0 -45 0 0 0.022 0 0 -45 0 0 0.017 0 0 0 0 0.0068 0.0873 0.0207 45 0 0 0 0.0267 0 80 0 0 0 0.0213 0 90 0 0 0 0.018 0 0 0 0 0.0067 0.0922 0.0055 45 0 0 0 0.0266 0 80 0 0 0 0.0228 0 90 0 0 0 0.015 0 0 0 0 0.0067 0.0925 -0.0113 45 0 0 0 0.0247 0 80 0 0 0 0.0221 0 90 0 0 0 0.018 0 0 0 0 0.0066 0.0935 -0.0272 45 0 0 0 0.0163 0 80 0 0 0 0.0171 0 90 0 0 0 0.018 0 0 0 0 1.78814e-05 36.2903 -2.38419e-05 10.0586 2.89906 -0.514004 7.07805e-06 17.4506 4.76837e-05 9.65831e-06 -8.53774e-06 -8.53774e-07 
41.2606 29.7628 -240.826 -2.06332 4.72212 -12.7877 7.20218 -6.66616 1.33274 -0.990705 5.42155 1.07044 -1.06171e-05 -55.2386 0 5.06906 -11.0946 0.977903 8.9407e-06 -37.2988 4.76837e-05 -4.86882 -1.42829 -2.95823 -7.03278 -6.92101 1.55225 5.71871 4.45344 0.518439 1.49012e-06 -57.9678 0 -2.09785 -11.1713 -0.406617 -2.98023e-06 -34.7111 0 20.8444 1.88388 11.8625 2.98023e-06 5.95128 -5.95129 0.486985 -2.51653 0.442554 -1.2666e-05 36.2903 4.76837e-05 -33.177 1.02453e-05 1.6028 17.4277 2.98023e-06 0 -32.3954 25.8453 -1.08317 21.1976 1.19209e-05 2.38419e-05 3.95855e-05 -1.32181e-05 -102.054 24.9851 5.96046e-06 2.38419e-05 33.7122 0.653933 -4.09429 0.0062 0.0497 0.0339 0 0 0 0 0.0215 0 0 0 0 0 0.022 0 0 0 0 0 0.017 0 0 0 0 -0.0068 0.0873 0.0207 0 0 0 0 0.0267 0 0 0 0 0 0.0213 0 0 0 0 0 0.018 0 0 0 0 -0.0067 0.0922 0.0055 0 0 0 0 0.0266 0 0 0 0 0 0.0228 0 0 0 0 0 0.015 0 0 0 0 -0.0067 0.0925 -0.0113 0 0 0 0 0.0247 0 0 0 0 0 0.0221 0 0 0 0 0 0.018 0 0 0 0 -0.0066 0.0935 -0.0272 0 0 0 0 0.0163 0 0 0 0 0 0.0171 0 0 0 0 0 0.018 0 0 0 0 -1.2666e-05 36.2903 4.76837e-05 30.3197 -2.13443e-06 -1.48089 -18.8621 1.19209e-05 -2.38419e-05 53.3028 21.0769 -9.36754 -23.7425 5.96046e-06 -2.38419e-05 5.52355e-06 2.56132e-06 57.5934 -28.3344 0 0 4.2205 -0.117063 -11.5174 -0.0062 0.0497 0.0339 45 0 0 0 0.0215 0 0 -45 0 0 0.022 0 0 -45 0 0 0.017 0 0 0 0 0.0068 0.0873 0.0207 45 0 0 0 0.0267 0 80 0 0 0 0.0213 0 90 0 0 0 0.018 0 0 0 0 0.0067 0.0922 0.0055 45 0 0 0 0.0266 0 80 0 0 0 0.0228 0 90 0 0 0 0.015 0 0 0 0 0.0067 0.0925 -0.0113 45 0 0 0 0.0247 0 80 0 0 0 0.0221 0 90 0 0 0 0.018 0 0 0 0 0.0066 0.0935 -0.0272 45 0 0 0 0.0163 0 80 0 0 0 0.0171 0 90 0 0 0 0.018 0 0 0 0 -1.2666e-05 36.2903 4.76837e-05 9.97462 2.89834 -0.509497 -3.72529e-07 17.4424 -7.15256e-05 9.71168e-06 -9.8184e-06 -2.56132e-06 
41.2486 29.7684 -240.806 -1.97807 4.73445 -12.8526 7.19263 -6.66439 1.33111 -1.10174 5.40063 1.05247 1.45286e-05 -55.2534 4.76837e-05 5.04936 -11.1576 0.979537 -1.41561e-05 -37.4816 -9.53674e-05 -4.48713 -2.00602 -2.78631 -7.02467 -6.90197 1.54502 5.62953 4.42329 0.501123 0 -57.9788 4.76837e-05 -2.44252 -10.8278 -0.459118 -7.45058e-06 -34.0842 2.38419e-05 20.9602 2.14194 11.8481 -1.49012e-06 5.94828 -5.94831 0.495667 -2.50894 0.45896 4.47035e-06 36.2903 -2.38419e-05 -33.1339 1.19528e-05 1.62962 17.4231 -1.49012e-05 4.76837e-05 -32.2174 26.3221 -1.03802 21.1724 5.96046e-06 -2.38419e-05 1.38339e-05 1.72383e-06 -101.493 24.9257 -2.38419e-05 5.96046e-06 33.385 0.514828 -4.4652 0.0062 0.0497 0.0339 0 0 0 0 0.0215 0 0 0 0 0 0.022 0 0 0 0 0 0.017 0 0 0 0 -0.0068 0.0873 0.0207 0 0 0 0 0.0267 0 0 0 0 0 0.0213 0 0 0 0 0 0.018 0 0 0 0 -0.0067 0.0922 0.0055 0 0 0 0 0.0266 0 0 0 0 0 0.0228 0 0 0 0 0 0.015 0 0 0 0 -0.0067 0.0925 -0.0113 0 0 0 0 0.0247 0 0 0 0 0 0.0221 0 0 0 0 0 0.018 0 0 0 0 -0.0066 0.0935 -0.0272 0 0 0 0 0.0163 0 0 0 0 0 0.0171 0 0 0 0 0 0.018 0 0 0 0 4.47035e-06 36.2903 -2.38419e-05 30.3706 -1.70755e-06 -1.50894 -18.8162 -1.19209e-05 0 53.104 20.8866 -9.41783 -23.3842 5.96046e-06 -4.76837e-05 1.35607e-05 1.70755e-06 58.5194 -27.73 5.96046e-06 2.38419e-05 4.16047 -0.10199 -11.9124 -0.0062 0.0497 0.0339 45 0 0 0 0.0215 0 0 -45 0 0 0.022 0 0 -45 0 0 0.017 0 0 0 0 0.0068 0.0873 0.0207 45 0 0 0 0.0267 0 80 0 0 0 0.0213 0 90 0 0 0 0.018 0 0 0 0 0.0067 0.0922 0.0055 45 0 0 0 0.0266 0 80 0 0 0 0.0228 0 90 0 0 0 0.015 0 0 0 0 0.0067 0.0925 -0.0113 45 0 0 0 0.0247 0 80 0 0 0 0.0221 0 90 0 0 0 0.018 0 0 0 0 0.0066 0.0935 -0.0272 45 0 0 0 0.0163 0 80 0 0 0 0.0171 0 90 0 0 0 0.018 0 0 0 0 4.47035e-06 36.2903 -2.38419e-05 9.74271 2.90917 -0.499269 1.86265e-06 17.4281 7.15256e-05 8.96462e-06 -1.00318e-05 8.53774e-07 
41.2394 29.7794 -240.79 -1.89866 4.74583 -12.9114 7.18429 -6.66831 1.33104 -1.20348 5.36527 1.03439 1.08033e-05 -55.2211 -9.53674e-05 5.00172 -11.181 0.972256 8.56817e-06 -37.6728 2.38419e-05 -4.11083 -2.52091 -2.60364 -7.01978 -6.89025 1.53959 5.54842 4.38907 0.484705 2.08616e-05 -57.9795 2.38419e-05 -2.45011 -10.7821 -0.458622 7.45058e-06 -34.0229 0 21.0392 2.38174 11.8161 4.47035e-06 5.94515 -5.94516 0.487256 -2.50303 0.488198 2.98023e-06 36.2903 7.15256e-05 -33.0417 1.28066e-05 1.66352 17.4248 -8.9407e-06 -2.38419e-05 -32.1434 26.7606 -0.996023 21.1468 1.19209e-05 2.38419e-05 5.37328e-05 -9.45404e-06 -100.981 24.9601 5.96046e-06 5.96046e-06 33.3053 0.296417 -6.30778 0.0062 0.0497 0.0339 0 0 0 0 0.0215 0 0 0 0 0 0.022 0 0 0 0 0 0.017 0 0 0 0 -0.0068 0.0873 0.0207 0 0 0 0 0.0267 0 0 0 0 0 0.0213 0 0 0 0 0 0.018 0 0 0 0 -0.0067 0.0922 0.0055 0 0 0 0 0.0266 0 0 0 0 0 0.0228 0 0 0 0 0 0.015 0 0 0 0 -0.0067 0.0925 -0.0113 0 0 0 0 0.0247 0 0 0 0 0 0.0221 0 0 0 0 0 0.018 0 0 0 0 -0.0066 0.0935 -0.0272 0 0 0 0 0.0163 0 0 0 0 0 0.0171 0 0 0 0 0 0.018 0 0 0 0 2.98023e-06 36.2903 7.15256e-05 30.4197 -2.98821e-06 -1.54285 -18.7873 1.78814e-05 0 52.9148 20.6543 -9.46209 -23.0609 -5.96046e-06 0 8.09073e-06 2.13443e-06 59.1978 -27.2548 0 0 4.39175 -0.0862388 -11.9662 -0.0062 0.0497 0.0339 45 0 0 0 0.0215 0 0 -45 0 0 0.022 0 0 -45 0 0 0.017 0 0 0 0 0.0068 0.0873 0.0207 45 0 0 0 0.0267 0 80 0 0 0 0.0213 0 90 0 0 0 0.018 0 0 0 0 0.0067 0.0922 0.0055 45 0 0 0 0.0266 0 80 0 0 0 0.0228 0 90 0 0 0 0.015 0 0 0 0 0.0067 0.0925 -0.0113 45 0 0 0 0.0247 0 80 0 0 0 0.0221 0 90 0 0 0 0.018 0 0 0 0 0.0066 0.0935 -0.0272 45 0 0 0 0.0163 0 80 0 0 0 0.0171 0 90 0 0 0 0.018 0 0 0 0 2.98023e-06 36.2903 7.15256e-05 9.58467 2.89719 -0.489004 1.11759e-05 17.417 -2.38419e-05 8.37765e-06 -1.13125e-05 0 
